<svg viewBox="0 0 830 203" xmlns="http://www.w3.org/2000/svg">
<path d="M733.767 46.366C732.556 46.3902 731.364 46.6799 730.277 47.2146C729.355 47.6299 728.512 48.2029 727.787 48.9079C727.133 49.5578 726.624 50.3385 726.293 51.1989C725.963 52.0548 725.827 52.9734 725.895 53.8883C725.982 54.8917 726.252 55.8707 726.691 56.7769L771.114 148.813C771.141 148.865 771.171 148.919 771.201 148.973L751.393 192.64C750.938 193.596 750.64 194.618 750.512 195.669C750.41 196.544 750.516 197.431 750.821 198.258C751.157 199.105 751.69 199.86 752.375 200.46C753.211 201.186 754.157 201.774 755.177 202.203C756.312 202.691 757.528 202.961 758.763 203C759.974 203.015 761.153 202.61 762.1 201.854C763.181 200.925 764.019 199.745 764.54 198.418L829.082 56.5776C829.537 55.6219 829.835 54.5986 829.964 53.5476C830.065 52.6796 829.955 51.8001 829.643 50.9837C829.305 50.1603 828.771 49.4313 828.089 48.8593C827.252 48.1651 826.31 47.6098 825.297 47.2146C824.142 46.6904 822.895 46.4018 821.628 46.366C820.409 46.3506 819.22 46.7406 818.248 47.4748C817.153 48.3629 816.29 49.5044 815.735 50.8005L778.667 132.518L739.839 50.6012C739.428 49.684 738.854 48.8487 738.146 48.1358C737.497 47.4988 736.714 47.014 735.855 46.7166C735.183 46.484 734.478 46.3655 733.767 46.366ZM125.536 165.597C124.024 165.597 122.549 166.067 121.315 166.942C120.512 167.48 119.826 168.174 119.298 168.984C118.818 169.758 118.52 170.63 118.425 171.536C118.33 172.441 118.441 173.357 118.75 174.213C119.105 175.138 119.638 175.984 120.319 176.703C122.891 180.068 125.849 183.119 129.134 185.793C132.497 188.511 136.155 190.842 140.04 192.74C144.141 194.736 148.473 196.217 152.938 197.148C157.804 198.15 162.761 198.642 167.729 198.617C170.318 198.62 172.904 198.464 175.473 198.15C177.934 197.847 180.372 197.379 182.769 196.749C185.104 196.133 187.393 195.353 189.617 194.414C191.826 193.479 193.964 192.387 196.016 191.146C198.052 189.916 200.006 188.556 201.867 187.075C203.705 185.61 205.443 184.025 207.072 182.331C208.707 180.627 210.229 178.818 211.629 176.915C213.057 174.969 214.363 172.935 215.538 170.827C216.73 168.689 217.779 166.474 218.675 164.196C219.576 161.901 220.325 159.549 220.916 157.155C221.52 154.702 221.969 152.214 222.261 149.705C222.562 147.094 222.712 144.469 222.709 141.841V101.201C222.68 98.55 222.503 95.9022 222.18 93.2704C221.87 90.7584 221.406 88.2677 220.792 85.8122C220.196 83.4375 219.445 81.1043 218.545 78.8274C216.782 74.3874 214.435 70.2023 211.566 66.3829C208.782 62.677 205.497 59.3751 201.805 56.5717C199.93 55.1498 197.963 53.8542 195.916 52.6934C193.839 51.5144 191.682 50.4806 189.462 49.5996C187.209 48.7085 184.898 47.9701 182.546 47.3895C180.117 46.7926 177.654 46.3497 175.169 46.0636C172.567 45.7656 169.95 45.6178 167.331 45.6209C164.739 45.6179 162.149 45.7654 159.574 46.0628C157.104 46.35 154.655 46.7928 152.241 47.3887C149.891 47.9712 147.583 48.7095 145.331 49.5988C143.102 50.4823 140.935 51.5161 138.845 52.693C136.782 53.8536 134.798 55.1492 132.906 56.5713C129.184 59.3725 125.866 62.6741 123.046 66.3825C121.61 68.2722 120.3 70.2541 119.124 72.3155C117.928 74.4105 116.88 76.5864 115.986 78.8274C115.082 81.1024 114.334 83.436 113.745 85.8122C113.14 88.2673 112.691 90.7584 112.401 93.2704C112.099 95.9032 111.949 98.5513 111.953 101.201C111.949 103.822 112.093 106.441 112.382 109.046C112.66 111.535 113.091 114.005 113.671 116.442C114.235 118.802 114.952 121.123 115.818 123.389C117.517 127.814 119.794 131.994 122.591 135.82C123.945 137.669 125.424 139.422 127.017 141.068C128.605 142.705 130.305 144.23 132.103 145.632C133.929 147.052 135.849 148.348 137.849 149.511C139.874 150.688 141.979 151.722 144.148 152.605C146.345 153.495 148.599 154.233 150.897 154.815C153.264 155.411 155.668 155.854 158.093 156.141C160.63 156.438 163.183 156.586 165.737 156.583C170.179 156.606 174.606 156.062 178.91 154.964C180.957 154.431 182.964 153.755 184.917 152.941C186.855 152.131 188.734 151.185 190.538 150.109C194.104 147.99 197.363 145.392 200.224 142.389C203.114 139.326 205.584 135.893 207.57 132.179V141.243C207.594 145.38 207.152 149.507 206.25 153.545C205.413 157.243 204.081 160.811 202.291 164.153C200.607 167.297 198.523 170.21 196.091 172.819C193.72 175.337 191.014 177.515 188.048 179.293C185.081 181.075 181.879 182.433 178.536 183.327C175.074 184.235 171.508 184.688 167.928 184.672C164.157 184.691 160.394 184.324 156.698 183.576C153.314 182.884 150.028 181.78 146.912 180.289C143.994 178.89 141.232 177.187 138.67 175.209C136.229 173.313 134.015 171.14 132.072 168.735C131.491 167.954 130.764 167.295 129.931 166.793C129.054 166.278 128.093 165.924 127.092 165.747C126.579 165.649 126.058 165.599 125.536 165.597ZM652.987 50.6012C652.052 50.5913 651.124 50.7517 650.247 51.0746C649.413 51.3937 648.651 51.8763 648.006 52.4942C647.36 53.1016 646.851 53.8401 646.513 54.6604C646.172 55.5243 646.003 56.4463 646.015 57.3749C646.006 58.2547 646.175 59.1271 646.513 59.9396C646.86 60.7401 647.369 61.4605 648.006 62.056C648.651 62.6739 649.413 63.1565 650.247 63.4756C651.124 63.7983 652.052 63.9586 652.987 63.9485H665.935V117.139C665.917 120.685 666.318 124.22 667.13 127.672C668.659 134.063 671.846 139.938 676.368 144.705C678.561 146.991 681.048 148.976 683.763 150.606C686.518 152.264 689.494 153.521 692.603 154.342C695.864 155.185 699.22 155.604 702.588 155.587H706.771C707.888 155.598 709 155.422 710.058 155.064C711.047 154.718 711.96 154.185 712.747 153.495C713.517 152.833 714.129 152.008 714.54 151.079C714.949 150.111 715.152 149.068 715.138 148.017C715.15 146.966 714.981 145.922 714.64 144.929C714.312 144.008 713.804 143.161 713.146 142.439C712.511 141.73 711.729 141.169 710.855 140.795C709.939 140.421 708.956 140.234 707.966 140.247H702.588C701.089 140.252 699.592 140.117 698.118 139.843C696.731 139.581 695.374 139.174 694.072 138.629C692.794 138.088 691.579 137.41 690.449 136.605C689.288 135.773 688.216 134.824 687.249 133.773C685.271 131.636 683.746 129.12 682.767 126.377C681.741 123.407 681.236 120.281 681.273 117.139V63.9485H703.783C704.717 63.9586 705.646 63.7983 706.522 63.4756C707.356 63.1566 708.118 62.6739 708.763 62.056C709.401 61.4607 709.91 60.7403 710.257 59.9396C710.595 59.127 710.764 58.2544 710.755 57.3745C710.767 56.4459 710.598 55.5239 710.257 54.66C709.92 53.8396 709.41 53.1009 708.763 52.4938C708.118 51.8759 707.356 51.3932 706.522 51.0742C705.646 50.7514 704.717 50.5912 703.783 50.6012H681.273V19.7231C681.286 18.6685 681.1 17.6209 680.726 16.6349C680.352 15.7023 679.793 14.8552 679.082 14.1447C678.372 13.4343 677.525 12.8752 676.592 12.5013C675.606 12.1268 674.559 11.941 673.504 11.9534C672.458 11.9394 671.418 12.1254 670.441 12.5013C669.527 12.8686 668.703 13.4294 668.026 14.1452C667.34 14.8602 666.806 15.7075 666.457 16.6353C666.099 17.6249 665.922 18.6709 665.935 19.7231V50.6012H652.987ZM613.345 46.617C612.252 46.6008 611.165 46.7778 610.133 47.1397C609.206 47.4758 608.365 48.0113 607.668 48.7084C606.971 49.4054 606.435 50.2471 606.099 51.1738C605.737 52.2055 605.56 53.293 605.576 54.3863V147.817C605.56 148.911 605.737 149.998 606.099 151.03C606.436 151.957 606.971 152.798 607.668 153.495C608.365 154.192 609.207 154.728 610.133 155.064C611.165 155.426 612.252 155.603 613.345 155.587C614.39 155.601 615.428 155.423 616.408 155.064C617.315 154.718 618.139 154.183 618.824 153.495C619.52 152.797 620.055 151.956 620.392 151.03C620.754 149.998 620.931 148.911 620.915 147.817V54.3863C620.931 53.2931 620.754 52.2057 620.392 51.1742C620.055 50.248 619.52 49.4067 618.824 48.7091C618.139 48.021 617.315 47.4863 616.408 47.1405C615.428 46.7807 614.39 46.6033 613.345 46.617ZM517.529 59.9643C520.767 59.9505 523.998 60.2844 527.165 60.9603C530.139 61.6041 533.024 62.6075 535.756 63.9485C538.395 65.2443 540.828 66.9225 542.977 68.9289C545.143 70.9768 547.005 73.3248 548.504 75.9014C550.129 78.7268 551.312 81.7833 552.016 84.9656C552.827 88.6616 553.219 92.4372 553.186 96.2211V148.017C553.176 149.022 553.362 150.02 553.734 150.955C554.113 151.87 554.672 152.7 555.377 153.395C556.085 154.109 556.933 154.669 557.867 155.039C558.853 155.413 559.901 155.599 560.955 155.587C561.961 155.596 562.959 155.41 563.893 155.039C565.734 154.26 567.199 152.795 567.977 150.955C568.348 150.02 568.534 149.022 568.525 148.017V96.2211C568.529 93.5969 568.394 90.9744 568.12 88.3646C567.863 85.9308 567.458 83.515 566.906 81.1307C566.384 78.883 565.708 76.674 564.883 74.5192C564.09 72.455 563.143 70.4531 562.051 68.5305C560.995 66.6748 559.816 64.8925 558.521 63.1955C557.262 61.5493 555.887 59.9952 554.406 58.5451C552.938 57.1108 551.367 55.7854 549.705 54.5795C548.024 53.3617 546.258 52.2653 544.42 51.2985C540.658 49.326 536.657 47.8447 532.518 46.8911C528.123 45.8943 523.629 45.4013 519.122 45.4217C514.964 45.4057 510.818 45.8822 506.772 46.8413C502.887 47.7777 499.138 49.2089 495.617 51.0997C493.196 52.3975 490.891 53.9014 488.729 55.5947C486.613 57.257 484.652 59.1061 482.868 61.1197V54.3863C482.884 53.2931 482.707 52.2057 482.345 51.1742C482.007 50.248 481.472 49.4067 480.776 48.7091C480.091 48.021 479.268 47.4863 478.36 47.1405C477.38 46.7808 476.342 46.6033 475.298 46.617C474.205 46.6008 473.117 46.7778 472.086 47.1397C471.159 47.4758 470.317 48.0113 469.62 48.7084C468.923 49.4054 468.388 50.2471 468.052 51.1738C467.69 52.2055 467.513 53.293 467.529 54.3863V148.017C467.515 149.061 467.692 150.099 468.052 151.08C468.398 151.987 468.933 152.81 469.621 153.495C470.318 154.192 471.16 154.727 472.086 155.064C473.118 155.426 474.205 155.603 475.298 155.587C476.342 155.601 477.38 155.423 478.361 155.064C479.267 154.716 480.09 154.181 480.776 153.495C481.463 152.809 481.997 151.986 482.345 151.079C482.704 150.099 482.882 149.061 482.868 148.017V89.0494C482.854 86.3676 483.24 83.6987 484.013 81.1307C484.786 78.6254 485.945 76.2561 487.449 74.1084C488.979 71.9165 490.796 69.9399 492.852 68.2316C495.009 66.4548 497.376 64.9495 499.899 63.7493C502.558 62.4771 505.358 61.5242 508.241 60.9105C511.295 60.2694 514.408 59.9522 517.529 59.9643ZM380.478 50.6012C379.543 50.5913 378.615 50.7517 377.738 51.0746C376.904 51.3937 376.142 51.8763 375.497 52.4942C374.851 53.1015 374.342 53.8401 374.004 54.6604C373.663 55.5243 373.494 56.4463 373.506 57.3749C373.497 58.2547 373.666 59.1271 374.004 59.9396C374.351 60.7402 374.86 61.4606 375.497 62.056C376.142 62.6739 376.904 63.1565 377.738 63.4756C378.615 63.7983 379.543 63.9586 380.478 63.9485H393.426V117.139C393.408 120.685 393.809 124.22 394.621 127.672C396.15 134.063 399.337 139.938 403.859 144.705C406.052 146.991 408.539 148.976 411.254 150.606C414.009 152.264 416.986 153.522 420.094 154.342C423.355 155.185 426.711 155.604 430.079 155.587H434.262C435.379 155.598 436.491 155.422 437.549 155.064C438.538 154.718 439.451 154.185 440.238 153.495C441.008 152.833 441.62 152.007 442.031 151.079C442.44 150.111 442.643 149.068 442.629 148.017C442.641 146.966 442.472 145.922 442.131 144.929C441.803 144.008 441.295 143.161 440.637 142.439C440.002 141.73 439.22 141.169 438.346 140.795C437.43 140.421 436.447 140.234 435.457 140.247H430.079C428.58 140.252 427.083 140.117 425.609 139.843C424.222 139.581 422.865 139.174 421.563 138.629C420.285 138.088 419.07 137.41 417.94 136.605C416.779 135.773 415.707 134.824 414.74 133.773C412.761 131.636 411.237 129.12 410.258 126.377C409.232 123.407 408.727 120.281 408.764 117.139V63.9485H431.274C432.208 63.9587 433.137 63.7984 434.013 63.4756C434.847 63.1565 435.609 62.6739 436.254 62.056C436.892 61.4607 437.401 60.7402 437.748 59.9396C438.086 59.127 438.255 58.2544 438.246 57.3745C438.258 56.4459 438.089 55.5239 437.748 54.66C437.411 53.8396 436.901 53.1009 436.254 52.4938C435.609 51.8759 434.847 51.3933 434.013 51.0742C433.137 50.7514 432.208 50.5911 431.274 50.6012H408.764V19.7231C408.777 18.6685 408.591 17.6209 408.216 16.6349C407.843 15.7023 407.284 14.8552 406.573 14.1447C405.863 13.4343 405.016 12.8752 404.083 12.5013C403.097 12.1268 402.05 11.941 400.995 11.9534C399.949 11.9394 398.909 12.1253 397.932 12.5013C397.018 12.8686 396.194 13.4294 395.517 14.1452C394.831 14.8602 394.297 15.7075 393.948 16.6353C393.59 17.6249 393.413 18.6709 393.426 19.7231V50.6012H380.478ZM302.589 59.9643C305.828 59.9504 309.059 60.2844 312.226 60.9603C315.2 61.6041 318.085 62.6076 320.816 63.9485C323.455 65.2443 325.889 66.9225 328.037 68.9289C330.204 70.9768 332.066 73.3248 333.565 75.9014C335.189 78.7268 336.373 81.7833 337.076 84.9656C337.888 88.6616 338.28 92.4373 338.247 96.2211V148.017C338.237 149.022 338.423 150.02 338.794 150.955C339.173 151.87 339.732 152.7 340.438 153.395C341.145 154.11 341.993 154.669 342.928 155.039C343.914 155.413 344.961 155.599 346.016 155.587C347.021 155.596 348.019 155.41 348.954 155.039C350.794 154.26 352.259 152.795 353.037 150.955C353.409 150.02 353.595 149.022 353.585 148.017V96.2211C353.59 93.5969 353.454 90.9744 353.18 88.3646C352.924 85.9308 352.518 83.515 351.966 81.1307C351.445 78.883 350.769 76.674 349.943 74.5192C349.15 72.455 348.204 70.4531 347.111 68.5305C346.056 66.6749 344.877 64.8925 343.582 63.1955C342.323 61.5493 340.947 59.9952 339.467 58.5451C337.998 57.1107 336.427 55.7853 334.765 54.5795C333.084 53.3617 331.319 52.2653 329.482 51.2985C325.719 49.326 321.719 47.8448 317.579 46.8911C313.184 45.8941 308.69 45.4012 304.183 45.4217C300.025 45.4057 295.879 45.8822 291.832 46.8413C287.947 47.7778 284.198 49.2089 280.677 51.0997C278.256 52.3974 275.951 53.9013 273.788 55.5947C271.673 57.2572 269.712 59.1063 267.928 61.1197V7.77034C267.944 6.67721 267.767 5.58982 267.405 4.55822C267.068 3.63203 266.533 2.79071 265.837 2.09315C265.152 1.40502 264.329 0.870334 263.422 0.524543C262.441 0.164696 261.403 -0.0127331 260.358 0.00101169C259.265 -0.0151229 258.178 0.161843 257.146 0.523753C256.22 0.859872 255.378 1.39537 254.681 2.09243C253.984 2.78948 253.449 3.63111 253.113 4.55783C252.751 5.58953 252.573 6.67706 252.59 7.77034V148.017C252.576 149.061 252.753 150.099 253.113 151.08C253.458 151.987 253.993 152.81 254.681 153.495C255.379 154.192 256.22 154.727 257.146 155.064C258.178 155.426 259.265 155.603 260.358 155.587C261.403 155.601 262.441 155.423 263.421 155.064C264.327 154.716 265.15 154.181 265.837 153.495C266.523 152.808 267.057 151.986 267.405 151.079C267.765 150.099 267.942 149.061 267.928 148.017V89.0494C267.914 86.3676 268.3 83.6987 269.074 81.1307C269.847 78.6254 271.006 76.2562 272.51 74.1084C274.04 71.9165 275.857 69.9399 277.913 68.2316C280.07 66.4548 282.437 64.9495 284.96 63.7493C287.619 62.4771 290.419 61.5242 293.302 60.9105C296.356 60.2694 299.469 59.9522 302.589 59.9643ZM71.116 46.617C70.0229 46.6009 68.9354 46.7778 67.9037 47.1397C66.977 47.4758 66.1355 48.0113 65.4384 48.7084C64.7414 49.4054 64.206 50.2471 63.8699 51.1738C63.5079 52.2055 63.331 53.293 63.3471 54.3863V147.817C63.3311 148.911 63.5082 149.998 63.8702 151.03C64.2063 151.957 64.7418 152.798 65.4388 153.495C66.1359 154.192 66.9774 154.728 67.9041 155.064C68.9356 155.426 70.023 155.603 71.116 155.587C72.1602 155.601 73.1982 155.423 74.1786 155.064C75.0858 154.718 75.9092 154.183 76.5941 153.495C77.2904 152.797 77.8258 151.956 78.163 151.03C78.5249 149.998 78.7018 148.911 78.6857 147.817V54.3863C78.7017 53.2932 78.5246 52.2058 78.1626 51.1742C77.8254 50.248 77.29 49.4067 76.5937 48.7091C75.9089 48.021 75.0857 47.4863 74.1786 47.1405C73.1982 46.7807 72.1603 46.6033 71.116 46.617ZM7.57044 0.00101169C6.52624 -0.0127633 5.48832 0.164526 4.5079 0.524142C3.60177 0.872073 2.77887 1.40655 2.09254 2.09292C1.40621 2.77929 0.871758 3.60224 0.523846 4.50841C0.164251 5.48889 -0.013029 6.52687 0.00074521 7.57112V121.123C-0.0142084 124.331 0.277686 127.533 0.872451 130.685C1.42107 133.565 2.29825 136.372 3.48679 139.052C4.58166 141.528 5.98739 143.854 7.67004 145.975C9.27149 147.974 11.1496 149.735 13.2477 151.204C15.2958 152.642 17.5558 153.751 19.9461 154.491C22.3923 155.23 24.9353 155.6 27.4907 155.587H30.0803C31.3038 155.601 32.522 155.425 33.6911 155.064C34.7383 154.731 35.711 154.198 36.5548 153.495C37.3504 152.84 37.9885 152.014 38.4217 151.079C38.8465 150.115 39.0588 149.07 39.0444 148.017C39.0572 146.978 38.9058 145.945 38.5958 144.954C38.3111 144.068 37.8542 143.247 37.2512 142.539C36.6821 141.864 35.9668 141.327 35.1596 140.97C34.3091 140.611 33.3936 140.433 32.4708 140.447H27.4907C25.7626 140.462 24.0642 139.996 22.5855 139.102C20.9787 138.073 19.6252 136.694 18.6262 135.068C17.4201 133.167 16.5365 131.081 16.0111 128.892C15.4065 126.347 15.114 123.738 15.1401 121.123V7.57112C15.154 6.52689 14.9769 5.48892 14.6174 4.50841C14.2696 3.6022 13.7352 2.77922 13.0488 2.09284C12.3625 1.40646 11.5395 0.872008 10.6334 0.524142C9.65282 0.164478 8.61477 -0.012812 7.57044 0.00101169ZM613.345 4.1845C610.517 4.14938 607.779 5.18066 605.676 7.07309C604.604 8.00624 603.76 9.17342 603.211 10.4844C602.645 11.9012 602.365 13.4164 602.389 14.942C602.376 16.3916 602.646 17.8298 603.186 19.1753C603.74 20.5013 604.552 21.7034 605.576 22.7114C606.572 23.7268 607.756 24.5388 609.062 25.1019C610.357 25.6383 611.745 25.9093 613.146 25.8988C614.596 25.9123 616.034 25.6416 617.379 25.1019C620.044 23.964 622.168 21.8408 623.305 19.1753C623.845 17.8298 624.116 16.3916 624.102 14.942C624.126 13.4165 623.847 11.9015 623.28 10.4848C622.731 9.17373 621.888 8.00654 620.815 7.07349C619.782 6.15007 618.593 5.41657 617.305 4.90684C616.041 4.42307 614.698 4.17814 613.345 4.1845ZM71.116 4.1845C68.2875 4.14938 65.5494 5.18066 63.4467 7.07309C62.3745 8.00623 61.5311 9.1734 60.9818 10.4844C60.4154 11.9012 60.136 13.4164 60.1599 14.942C60.1464 16.3916 60.4171 17.8298 60.9567 19.1753C61.5104 20.5012 62.3231 21.7034 63.3471 22.7114C64.343 23.7269 65.5271 24.5388 66.8332 25.1019C68.1273 25.6384 69.516 25.9094 70.9168 25.8988C72.3664 25.9123 73.8045 25.6416 75.1499 25.1019C77.8152 23.964 79.9383 21.8408 81.0762 19.1753C81.6157 17.8298 81.8864 16.3916 81.873 14.942C81.8968 13.4166 81.6176 11.9015 81.0515 10.4848C80.502 9.17387 79.6587 8.00673 78.5865 7.07349C77.5529 6.15002 76.3643 5.41652 75.0754 4.90684C73.8117 4.42302 72.4692 4.17809 71.116 4.1845ZM167.331 142.638C163.589 142.657 159.859 142.214 156.225 141.318C152.789 140.456 149.487 139.123 146.415 137.359C143.418 135.641 140.67 133.521 138.247 131.058C135.823 128.569 133.745 125.763 132.072 122.717C130.331 119.553 129.025 116.169 128.188 112.656C126.461 105.109 126.461 97.269 128.188 89.7216C129.027 86.186 130.334 82.7777 132.072 79.5864C133.741 76.5148 135.818 73.6835 138.247 71.17C140.665 68.6949 143.413 66.5664 146.415 64.845C149.487 63.0804 152.789 61.748 156.225 60.8854C163.516 59.1259 171.121 59.1259 178.412 60.8854C185.195 62.5893 191.369 66.1509 196.24 71.17C198.657 73.6888 200.725 76.5195 202.39 79.5868C204.129 82.7781 205.435 86.1864 206.275 89.722C208.001 97.2694 208.001 105.109 206.275 112.657C205.438 116.169 204.131 119.553 202.39 122.717C200.72 125.758 198.652 128.563 196.24 131.058C191.358 136.059 185.187 139.61 178.411 141.318C174.787 142.214 171.065 142.658 167.331 142.638Z" />
</svg>
